<svg width="50" height="50" viewBox="0 0 50 50" fill="none" xmlns="http://www.w3.org/2000/svg">
<path d="M15.9464 0H3.69643C1.65495 0 0 1.65495 0 3.69643V46.3036C0 48.3451 1.65495 50 3.69643 50H15.9464C17.9879 50 19.6429 48.3451 19.6429 46.3036V3.69643C19.6429 1.65495 17.9879 0 15.9464 0Z" fill="white"/>
<path d="M46.3038 0H34.0539C32.0124 0 30.3574 1.65495 30.3574 3.69643V46.3036C30.3574 48.3451 32.0124 50 34.0539 50H46.3038C48.3453 50 50.0003 48.3451 50.0003 46.3036V3.69643C50.0003 1.65495 48.3453 0 46.3038 0Z" fill="white"/>
</svg>
