<svg width="44" height="54" viewBox="0 0 44 54" fill="none" xmlns="http://www.w3.org/2000/svg">
<path d="M17.2576 3H26.7626M22.0101 31.5152V22.0101M3 29.1389C3.58186 24.5194 5.83882 20.274 9.34283 17.208C12.8468 14.142 17.3542 12.4686 22.0101 12.5051C25.0851 12.5083 28.1134 13.2575 30.8353 14.6883C33.5571 16.1191 35.8912 18.1888 37.6374 20.7198C39.3836 23.2509 40.4898 26.1678 40.861 29.2203C41.2322 32.2729 40.8573 35.3698 39.7686 38.2457C38.6799 41.1215 36.9099 43.6903 34.6103 45.7317C32.3106 47.7731 29.5501 49.2262 26.5655 49.9664C23.581 50.7065 20.4614 50.7116 17.4744 49.9812C14.4874 49.2507 11.7222 47.8066 9.41591 45.7727L3 40.0697" stroke="white" stroke-width="5" stroke-linecap="round" stroke-linejoin="round"/>
<path d="M14.8813 38.6438H3V50.5251" stroke="white" stroke-width="5" stroke-linecap="round" stroke-linejoin="round"/>
</svg>
